<svg width="1032" height="193" viewBox="0 0 1032 193" xmlns="http://www.w3.org/2000/svg"><title>Silhouette of buildings</title><path d="M966.6 8.4c-4.3 0-8.1 2.6-9.8 6.2-2.8-7.1-9.7-12.2-17.9-12.2-8.7 0-16.1 5.8-18.4 13.8h56.6c-1.4-4.5-5.5-7.8-10.5-7.8zm-866 35.7c-4.3 0-8.1 2.6-9.8 6.2C88 43.2 81 38.2 72.9 38.2c-8.7 0-16.1 5.8-18.4 13.8h56.6c-1.4-4.6-5.6-7.9-10.5-7.9zm565.7 3.5c-4.4 0-8.2 2.6-9.9 6.3-2.5-6.2-8.6-10.6-15.8-10.6-7 0-13 4.3-15.6 10.3-1.8-3.5-5.5-6-9.7-6-5 0-9.2 3.3-10.5 7.9h72c-1.3-4.6-5.5-7.9-10.5-7.9zm348 104h-283v-28.7H575.9V63h-67.7V.7h-71v86.6h-77.5c-8.7 0-15.7 7-15.7 15.7v48.7h-78v-31.2l-48.4-28.8-12.1 7.2V53.3h-.1v-8.9c0-.1-.1-6.1 4.3-10.5 2.4-2.4 5.7-4 9.8-4.5.6 1.8 2.2 3.1 4.2 3.1h10.1c2.1 0 3.8-1.4 4.3-3.3h.1c1.1 0 1.9-.9 1.9-1.9 0-1-.9-1.9-1.9-1.9h-14.6c-7.2 0-12.8 2-16.8 6-1.6 1.6-2.7 3.4-3.5 5.1-.8-1.7-1.9-3.5-3.5-5.1-3.9-4-9.6-6-16.8-6h-14.6c-1.1 0-1.9.9-1.9 1.9 0 1 .9 1.9 1.9 1.9h.1c.5 1.9 2.2 3.3 4.3 3.3h10.1c2 0 3.6-1.3 4.2-3.1 4.1.6 7.4 2.1 9.8 4.5 4.4 4.4 4.4 10.5 4.4 10.6v8.9h-.1v48l-31 18.4L127.1 94l-48.4 28.8v28.9H11.3C5.1 151.7 0 156.8 0 163v29.3h219.2v-31.4h26v31.4h245.7V177c-5.9-.8-10.4-5.8-10.4-11.9v-16.8c0-6.6 5.4-12 12-12s12 5.4 12 12v16.8c0 6.1-4.5 11.1-10.4 11.9v15.3h37.5V177c-5.9-.8-10.4-5.8-10.4-11.9v-16.8c0-6.6 5.4-12 12-12s12 5.4 12 12v16.8c0 6.1-4.5 11.1-10.4 11.9v15.3h497v-23.1c0-9.8-7.9-17.6-17.5-17.6zM362.6 109h66.1v15.4h-66.1V109zm91.4 41.4h-66.1V135H454v15.4zm83.4-27.5h-15.9v-15.4h15.9v15.4zm0-21.8h-15.9V85.7h15.9v15.4zm22.3 21.8h-15.9v-15.4h15.9v15.4zm0-21.8h-15.9V85.7h15.9v15.4zm106.5 83c-2 0-3.9-.6-5.5-1.5-.8 3.9-4.3 6.8-8.4 6.8-4.7 0-8.6-3.8-8.6-8.6 0-4.7 3.8-8.6 8.6-8.6 1.1 0 2.2.2 3.2.6.3-5.6 5-10.1 10.7-10.1 5.9 0 10.7 4.8 10.7 10.7 0 5.9-4.7 10.7-10.7 10.7zm305.5 4.6c-4.7 0-8.4-3.7-8.6-8.3-1.8 1.4-4.1 2.3-6.5 2.3-5.8 0-10.5-4.7-10.5-10.5s4.7-10.5 10.5-10.5c2.4 0 4.6.8 6.4 2.2.9-.4 1.8-.6 2.9-.6 3.8 0 6.9 3.1 6.9 6.9 0 .5-.1 1-.2 1.5 4.3.5 7.7 4.1 7.7 8.5 0 4.6-3.8 8.5-8.6 8.5zm-750.5 3.5h22v-6.3h-22v6.3zm0-22.2h22v-2.7h-22v2.7zm0 9.3h22v-2.7h-22v2.7z" fill-rule="nonzero" fill="#FFF" fill-opacity=".1"/></svg>
