<svg width="49" height="76" viewBox="0 0 49 76" xmlns="http://www.w3.org/2000/svg"><title>List your home</title><g fill-rule="nonzero" fill="none"><path d="M26 74h-4V2.016C22 .864 22.857 0 24 0s2 .864 2 2.016V74z" fill="#55241A"/><path d="M42.947 58H6.053C2.738 58 0 55.226 0 51.868V11.132C0 7.774 2.738 5 6.053 5h36.894C46.262 5 49 7.774 49 11.132v40.736C49 55.226 46.262 58 42.947 58z" fill="#55241A"/><path d="M6.6 55C4.013 55 2 53 2 50.429V10.57C2 8 4.013 6 6.6 6h36.8c2.587 0 4.6 2 4.6 4.571V50.43C48 53 45.987 55 43.4 55H6.6z" fill="#55241A"/><path d="M6.153 53C4.433 53 3 51.576 3 49.867V10.133C3 8.424 4.433 7 6.153 7h36.694C44.567 7 46 8.424 46 10.133v39.734C46 51.576 44.567 53 42.847 53H6.153z" fill="#FFF"/><path d="M42.847 7H6.153C4.433 7 3 8.448 3 10.186V39h43V10.186C46 8.448 44.567 7 42.847 7z" fill="#F8B000"/><path d="M42.847 7H6.153C4.433 7 3 8.41 3 10.103V18c0-1.692 1.433-3.103 3.153-3.103h36.694c1.72 0 3.153 1.41 3.153 3.103v-7.897C46 8.41 44.567 7 42.847 7z" fill="#F6861E"/><g fill="#FFF"><path d="M19.113 21.54v-6.58H16.69V13h7.127v1.96h-2.423v6.58h-2.28zM24.957 21.54V13h6.414v1.96h-4.133v1.26h3.99v1.96h-3.99v1.4h4.133v1.96h-6.414zM11.844 33.72l-2.28-3.22-.57.7v2.52H6.712v-8.54h2.28v3.5l2.708-3.5h2.709l-3.421 3.92 3.563 4.48h-2.708z"/><path d="M14.267 29.38c0-2.66 1.995-4.34 4.704-4.34 2.708 0 4.703 1.82 4.703 4.34 0 2.66-1.995 4.34-4.703 4.34-2.709 0-4.704-1.68-4.704-4.34zm6.984 0c0-1.4-.855-2.52-2.423-2.52-1.425 0-2.423 1.12-2.423 2.52s.855 2.52 2.423 2.52 2.423-1.12 2.423-2.52zM24.244 29.38c0-2.66 1.996-4.34 4.704-4.34 2.708 0 4.704 1.82 4.704 4.34 0 2.66-1.996 4.34-4.704 4.34-2.708.14-4.704-1.68-4.704-4.34zm6.985 0c0-1.4-.856-2.52-2.424-2.52-1.425 0-2.423 1.12-2.423 2.52s.856 2.52 2.423 2.52c1.568 0 2.424-1.12 2.424-2.52zM34.65 33.72v-8.54h4.275c1.996 0 2.994 1.26 2.994 2.8 0 1.54-.998 2.8-2.994 2.8h-2.138v2.8H34.65v.14zm5.13-5.74c0-.56-.427-.98-.997-.98H36.93v1.82h1.853c.57 0 .998-.28.998-.84z"/></g><path d="M31.838 45H17.162C16.436 45 16 44.5 16 44c0-.625.581-1 1.162-1h14.676c.726 0 1.162.5 1.162 1 0 .625-.581 1-1.162 1zM29.83 49h-9.66c-.731 0-1.17-.5-1.17-1 0-.625.585-1 1.17-1h9.66c.731 0 1.17.5 1.17 1 0 .625-.439 1-1.17 1z" fill="#F6861E"/><g fill="#E1F5F5"><path d="M25.164 15.8h2.181v-.933h4.219V13h-6.4zM21.527 15.8v-.933H24V13h-7.273v1.867H19.2v.933z"/></g><path d="M46 76c-7.409 0-13.51-8-21.5-8S9.828 76 3 76h43z" fill="#C0CE06"/></g></svg>
