<svg id="rechts" xmlns="http://www.w3.org/2000/svg" width="400" height="232"><style>.st0{fill:#85a600}.st1{fill:#55241a}.st2{fill:#9ec300}.st3{fill:#c0ce06}.st4{fill:#90ba00}.st5{fill:#ffc92f}.st6{fill:#6c4138}.st7{fill:#fff}.st8{fill:#96b432}.st9{fill:#b3cf01}.st10{fill:#f6861e}.st11{fill:#f8b000}.st12{fill:#e7f1f5}.st13{fill:#00aae6}.st14{fill:#f89b00}.st15{fill:#ee7500}.st16{fill:#0094e6}.st17{fill:#fde3a5}.st18{fill:#008dd9}.st19{fill:#84d0f0}.st20{fill:#36bceb}</style><path class="st0" d="M234.1 176.9h14.6c6.7 0 12.2 5.4 12.2 12.2v21.4h-26.8v-33.6z"/><g id="XMLID_2_"><g id="XMLID_40_"><path class="st1" d="M368.2 178.8h-1.4v-3.3h1.4c3.6 0 6.6-2.9 6.6-6.6v-10.2h3.3v10.2c0 5.4-4.4 9.9-9.9 9.9z" id="XMLID_50_"/></g><g id="XMLID_37_"><g id="XMLID_38_"><path class="st1" d="M363.9 162.8h5.2v60.5h-5.2z" id="XMLID_39_"/></g></g><g id="XMLID_35_"><path class="st2" d="M367.2 163.9c17.4 0 31.6-14.1 31.6-31.6V74.2c0-17.4-14.1-31.6-31.6-31.6-17.4 0-31.6 14.1-31.6 31.6v58.2c0 17.4 14.2 31.5 31.6 31.5z" id="XMLID_36_"/></g><g id="XMLID_23_"><path class="st3" d="M367.2 42.6c14.6 0 27 10 30.5 23.5-2.7-7.3-9.7-12.5-18-12.5-10.6 0-19.1 8.5-19.2 19.1v46.9c0 10.6-8.6 19.2-19.2 19.2-1.8 0-3.6-.3-5.2-.7-.3-1.9-.5-3.8-.5-5.8V74.2c0-17.5 14.2-31.6 31.6-31.6z" id="XMLID_24_"/></g></g><path class="st2" d="M223.5 148.2c2.2-3.3 3-7.4 1.8-11.1-.4-1.5-.7-3-.7-4.6 0-3.5 1.1-6.7 2.9-9.4 1.9-2.8 2.4-6.2 1.6-9.4-.3-1-.4-2.1-.4-3.3 0-7.5 6.8-13.7 14.7-13.4 7.6.2 13.8 6.2 13.8 13.4 0 1.1-.1 2.2-.4 3.3-.8 3.2-.4 6.6 1.6 9.4 1.9 2.7 2.9 5.9 2.9 9.4 0 1.6-.2 3.2-.7 4.6-1.1 3.7-.5 7.7 1.7 11 2.5 3.7 3.9 8.2 3.7 13-.6 11.5-10.8 20.6-22.9 20.6-12.8.1-23.1-9.7-23.1-21.8-.1-4.4 1.2-8.4 3.5-11.7z" id="XMLID_1_"/><path class="st2" d="M239.4 173.9h7.1v30.6h-7.1z"/><path class="st4" d="M262.4 148.2c-3 .1-6 .7-8.8 1.9.2 2.1 1.8 14 8 22.4 2.5-3.3 4.1-7.3 4.3-11.6.3-4.6-1-9-3.5-12.7z"/><g id="XMLID_252_"><path class="st1" d="M282.2 211.4h-2.8V169h2.8z"/><path class="st1" d="M280.5 186.2h-2c-4 0-7.3-3.3-7.3-7.3v-5.7h2.8v5.7c0 2.5 2 4.5 4.5 4.5h2v2.8z"/><g id="XMLID_922_"><path class="st3" d="M285.6 148.2c-7.8-4-29 1.3-29 1.3s2 21.6 14.4 27c8.1 3.5 17.5.9 21.5-6.9 4-7.7.9-17.4-6.9-21.4z" id="XMLID_927_"/></g><path class="st3" d="M289.5 137.9c2.6 0 4.8 2.1 4.8 4.8v19.8l-9.5-8.7v-11.2c-.1-2.6 2.1-4.7 4.7-4.7z" id="XMLID_921_"/><path class="st3" d="M294.3 142.4l4.7 4.4h-4.7z" id="XMLID_716_"/><path class="st2" d="M286.8 160c-.3-2.2-2.3-7.9-11.6-8.8-4.2-.4-9.7.7-13.1 1.3l1 1.7c-.6.4-1 1.1-1 1.9 0 1 .7 1.9 1.6 2.2-.5.5-.9 1.3-.9 2.1 0 1.5 1.1 2.8 2.6 3-.2.4-.4.9-.4 1.4 0 1.7 1.4 3 3 3 .3 0 .6-.1.9-.1.2 1.8 1.8 3.3 3.7 3.3 1 0 1.8-.4 2.5-1 .7.7 1.7 1.2 2.7 1.2 1.9 0 3.5-1.5 3.7-3.3.3.1.6.2 1 .1 5-.6 4.6-6 4.3-8z"/></g><path class="st0" d="M100.1 169.1H85.5c-6.7 0-12.2 5.4-12.2 12.2v23.8h26.8v-36z"/><path class="st1" d="M55.9 127.5h3.4V204h-3.4z"/><circle class="st2" cx="57.6" cy="129.5" r="15.4"/><circle class="st2" cx="57.6" cy="166.1" r="17.5"/><path class="st1" d="M315 138.7h3.2v73.1H315z"/><circle class="st2" cx="316.6" cy="139.8" r="14.1"/><circle class="st2" cx="316.6" cy="176.8" r="18.5"/><path class="st5" d="M144.4 56.3h95.5v151.2h-95.5z"/><path class="st1" d="M158.3 68.9h23.2v40.7h-23.2z"/><path class="st6" d="M174 69.4v18.1c0 1.9 1.6 3.5 3.5 3.5h.6v18.6h3.2V69.1l-7.3.3zm-8.5 0v18.1c0 1.9-1.6 3.5-3.5 3.5h-.6v18.6h-3.2V69.1l7.3.3z"/><path class="st7" d="M182.7 110.7h-25.6v-43h25.6v43zm-23.2-2.3h20.9V70h-20.9v38.4z"/><path class="st7" d="M158.5 79h23.1v1.5h-23.1z"/><path class="st7" d="M165.4 68.9h1.5v10.9h-1.5zm7.8 0h1.5v10.9h-1.5z"/><path class="st1" d="M172.4 99.3c.6 1.5-.5 3.2-.5 3.2s-2-.6-2.6-2-.1-2.3.7-2.6c.9-.4 1.8-.1 2.4 1.4z"/><path transform="rotate(-19.718 167.257 101.816)" class="st8" d="M167 98.3h.7v7h-.7z"/><path transform="rotate(-4.37 169.115 101.582)" class="st8" d="M168.8 98h.7v7.2h-.7z"/><path class="st8" d="M167.2 98.9c-.3 1.3-1.9 2-1.9 2s-1.1-1.4-.7-2.7c.3-1.3 1.1-1.6 1.8-1.4.7.1 1.2.8.8 2.1z"/><path transform="rotate(15.582 170.174 102.58)" class="st1" d="M169.8 100.2h.7v4.8h-.7z"/><path transform="rotate(-58.929 171.931 101.86)" class="st8" d="M168.4 101.5h7.1v.7h-7.1z"/><path transform="rotate(-37.029 165.878 103.391)" class="st8" d="M165.5 101.4h.7v3.9h-.7z"/><path class="st9" d="M170.1 97.7c-1 1.2-3.1 1.1-3.1 1.1s-.4-2 .6-3.2 2-1.2 2.7-.6.8 1.5-.2 2.7zm-5.1 5c-1 1.2-2.6 1.5-2.6 1.5s.1-1.6 1.1-2.8c1-1.2 1.7-1.4 2.2-1s.3 1.1-.7 2.3z"/><path class="st10" d="M163.9 104.6c.9 2.3 3.1 3.9 5.7 3.9s4.8-1.6 5.7-3.9h-11.4z"/><path transform="rotate(-7.022 172.76 102.467)" class="st8" d="M171.7 102.1h2.3v.7h-2.3z"/><path class="st8" d="M176.1 97.8c.6 1.5-.5 3.2-.5 3.2s-2-.6-2.6-2-.1-2.3.7-2.6c.9-.3 1.9 0 2.4 1.4zm-1 4.5c.7.8.8 2 .8 2s-1.1-.2-1.9-1.1-.8-1.4-.5-1.7c.3-.2.8 0 1.6.8z"/><path class="st7" d="M155.9 108.4h28.2v3.3h-28.2z"/><path class="st11" d="M155.9 111.7h28.2v1.9c0 1-.8 1.8-1.8 1.8h-24.6c-1 0-1.8-.8-1.8-1.8v-1.9z"/><path class="st12" d="M159.6 75.8c.5-.6 1-.3 1.4-1 .4-.7-.1-1 .4-1.7.4-.7 1-.3 1.4-1 .4-.7 0-1 .4-1.7.2-.4.8-.6.8-.6h-4.5v6.5c-.1.2 0-.3.1-.5zm20.7 0c-.5-.6-1-.3-1.4-1-.4-.7.1-1-.4-1.7-.4-.7-1-.3-1.4-1-.4-.7 0-1-.4-1.7-.2-.4-.8-.6-.8-.6h4.5v6.5c0 .2 0-.3-.1-.5z"/><path class="st11" d="M182.7 67.7c-2.7-3.9-7.4-6.4-12.8-6.4s-10.1 2.6-12.8 6.4h25.6z"/><path class="st10" d="M167.3 61.5l.3 6.2h4.8l.3-6.2c-.9-.2-1.8-.2-2.8-.2-.9 0-1.8.1-2.6.2zm9.4 6.2h6.1c-1.3-1.8-3-3.3-5-4.5l-1.1 4.5zm-13.5 0h-6.1c1.3-1.8 3-3.3 5-4.5l1.1 4.5z"/><path class="st1" d="M199.6 68.9h23.2v40.7h-23.2z"/><path class="st6" d="M214.4 90.8c-1.9 0-3.5-1.6-3.5-3.5v-11h.9v11c0 1.4 1.2 2.6 2.6 2.6 1.4 0 2.6-1.2 2.6-2.6V86h.9v1.3c0 2-1.6 3.5-3.5 3.5z"/><path class="st6" d="M213.3 84.5c-1.3 0-2.4-1.1-2.4-2.4v-.6h.9v.6c0 .8.7 1.5 1.5 1.5s1.5-.7 1.5-1.5v-2h.9v2c0 1.3-1.1 2.4-2.4 2.4z"/><path class="st6" d="M208.3 90.8c-1.9 0-3.5-1.6-3.5-3.5V86h.9v1.3c0 1.4 1.2 2.6 2.6 2.6 1.4 0 2.6-1.2 2.6-2.6V70h.9v17.3c0 2-1.6 3.5-3.5 3.5z"/><path class="st6" d="M209.4 84.5c-1.3 0-2.4-1.1-2.4-2.4v-2h.9v2c0 .8.7 1.5 1.5 1.5s1.5-.7 1.5-1.5v-.6h.9v.6c0 1.3-1.1 2.4-2.4 2.4zm5.9.7h4v.9h-4z"/><path class="st6" d="M216.9 83.1h.8v2.2h-.8zm-13.6 2.1h4v.9h-4z"/><path class="st6" d="M204.9 83.1h.8v2.2h-.8z"/><circle class="st6" cx="208.4" cy="91.6" r=".3"/><circle class="st6" cx="208.4" cy="92.5" r=".3"/><circle class="st6" cx="208.4" cy="93.4" r=".3"/><circle class="st6" cx="208.4" cy="94.6" r=".6"/><circle class="st6" cx="215" cy="91.6" r=".3"/><circle class="st6" cx="215" cy="92.5" r=".3"/><circle class="st6" cx="215" cy="93.4" r=".3"/><circle class="st6" cx="215" cy="94.6" r=".6"/><circle class="st6" cx="211.5" cy="92.3" r=".3"/><circle class="st6" cx="211.5" cy="91.3" r=".3"/><circle class="st6" cx="211.5" cy="93.2" r=".3"/><circle class="st6" cx="211.5" cy="94.2" r=".3"/><circle class="st6" cx="211.5" cy="95.3" r=".6"/><path class="st6" d="M222.8 109.6V88l-.6-.7-22.3 22.3z"/><path class="st7" d="M224 110.7h-25.6v-43H224v43zm-23.3-2.3h20.9V70h-20.9v38.4z"/><path class="st7" d="M199.7 79h23.1v1.5h-23.1z"/><path class="st7" d="M206.7 68.9h1.5v10.9h-1.5zm7.7 0h1.5v10.9h-1.5z"/><path class="st11" d="M217.7 103.6l.8-2.5h-3.2l.8 2.5c-1 .3-1.7 1.3-1.7 2.3 0 1.4 1.1 2.5 2.5 2.5s2.5-1.1 2.5-2.5c0-1-.7-2-1.7-2.3z" id="XMLID_1558_"/><path class="st13" d="M212.1 108.5c-.8 0-1.4-.6-1.3-1.4 0 0 .7-5.3 1.3-5.3s1.3 5.3 1.3 5.3c0 .7-.6 1.4-1.3 1.4z"/><path class="st7" d="M197.2 108.4h28.2v3.3h-28.2z"/><path class="st11" d="M197.2 111.7h28.2v1.9c0 1-.8 1.8-1.8 1.8H199c-1 0-1.8-.8-1.8-1.8v-1.9z"/><path class="st12" d="M200.8 75.8c.5-.6 1-.3 1.4-1 .4-.7-.1-1 .4-1.7.4-.7 1-.3 1.4-1 .4-.7 0-1 .4-1.7.2-.4.8-.6.8-.6h-4.5v6.5c0 .2 0-.3.1-.5zm20.8 0c-.5-.6-1-.3-1.4-1-.4-.7.1-1-.4-1.7-.4-.7-1-.3-1.4-1-.4-.7 0-1-.4-1.7-.2-.4-.8-.6-.8-.6h4.5v6.5c0 .2-.1-.3-.1-.5z"/><path class="st11" d="M224 67.7c-2.7-3.9-7.4-6.4-12.8-6.4s-10.1 2.6-12.8 6.4H224z"/><path class="st10" d="M208.5 61.5l.3 6.2h4.8l.3-6.2c-.9-.2-1.8-.2-2.8-.2-.8 0-1.7.1-2.6.2zm9.4 6.2h6.1c-1.3-1.8-3-3.3-5-4.5l-1.1 4.5zm-13.4 0h-6.1c1.3-1.8 3-3.3 5-4.5l1.1 4.5z"/><path class="st13" d="M144.4 196.2h95.5v15.7h-95.5z"/><path class="st7" d="M239.9 193.1h-95.5c-.5 0-1 .4-1 1v1.4c0 .5.4 1 1 1h95.5c.5 0 1-.4 1-1V194c-.1-.5-.5-.9-1-.9z"/><path class="st1" d="M160.3 200.1h19.6v8h-19.6z"/><path class="st7" d="M180.7 209h-21.3v-9.7h21.3v9.7zm-19.6-1.7h17.8V201h-17.8v6.3z"/><path class="st7" d="M169.3 200.1h1.4v8h-1.4z"/><path class="st1" d="M203.7 200.1h19.6v8h-19.6z"/><path class="st7" d="M224.1 209h-21.3v-9.7h21.3v9.7zm-19.5-1.7h17.8V201h-17.8v6.3z"/><path class="st7" d="M212.8 200.1h1.4v8h-1.4z"/><path class="st5" d="M85.6 55.3h58.7v156.5H85.6z"/><path class="st7" d="M84.7 149h59.7v4.1H84.7z"/><path class="st11" d="M143.4 135.6H95.6c-2.9 0-5.2-2.3-5.2-5.2v-7.8h49.7V56.7h3.2v78.9z"/><path class="st7" d="M84.7 172.9h59.7v4.1H84.7z"/><path class="st14" d="M128.9 135.3c-2.9-4.1-7.9-6.8-13.5-6.8s-10.7 2.7-13.5 6.8h27z"/><path class="st15" d="M112.5 128.8l.3 6.6h5.1l.3-6.5c-.9-.2-1.9-.2-2.9-.2-.9-.2-1.9-.1-2.8.1zm10 6.5h6.4c-1.4-1.9-3.2-3.5-5.3-4.7l-1.1 4.7zm-14.3 0h-6.4c1.4-1.9 3.2-3.5 5.3-4.7l1.1 4.7z"/><path class="st10" d="M103 137h24.7v58.9H103z"/><path class="st7" d="M128.9 197h-27.1v-61.7h27.1V197zm-24.8-2.3h22.4v-57h-22.4v57z"/><path class="st15" d="M121.7 192.1h-12.5c0-1.2-.9-2.1-2.1-2.1v-15c1.2 0 2.1-.9 2.1-2.1h12.5c0 1.2.9 2.1 2.1 2.1v14.9c-1.2 0-2.1 1-2.1 2.2z"/><path class="st7" d="M110.3 176.3h10v2.7h-10z"/><path class="st1" d="M107 170.5h7.2v-15.6H107v15.6zm9.6-15.6v15.6h7.2v-15.6h-7.2zm7.1-14.5H107v7h16.7v-7z"/><path class="st7" d="M103 149.9h24.7v2.3H103z"/><path class="st12" d="M104.1 143.4c.5-.6 1-.3 1.4-1 .4-.7-.1-1 .4-1.7.4-.7 1-.3 1.4-1s0-1 .4-1.7c.2-.4.8-.6.8-.6H104v6.5c-.1.2 0-.4.1-.5zm22.5 0c-.5-.6-1-.3-1.4-1-.4-.7.1-1-.4-1.7-.4-.7-1-.3-1.4-1s0-1-.4-1.7c-.2-.4-.8-.6-.8-.6h4.5v6.5c0 .2 0-.4-.1-.5z"/><path class="st6" d="M107 161.5l5.9-5.9H107v5.9zm0-20.3v6.2h14.3l2.5-2.5v-3.7H107z"/><path class="st10" d="M138.2 206.8v-4.9h-4.7V197H97.3v4.9h-4.7v4.9h-4.8v5h55.1v-5z"/><path class="st5" d="M92.6 201.9h45.6v4.9H92.6z"/><path class="st7" d="M182.7 172.9h15.7v4.1h-15.7zm-38.3 0h12.8v4.1h-12.8zm79.6 0h16.8v4.1H224z"/><path class="st1" d="M158.3 136.5h23.2v45.6h-23.2z"/><path class="st6" d="M170.5 149h10v.9h-10.9l-11.3 11.3v20.9h10.4l12.8-12.9v-31.3z"/><path class="st1" d="M164.9 161.9c0-3.9.4-6.1 1.5-7.5.4-.5.9-1 1.5-1.3l1.6 1.9-.8-2.2c.2-.1.5-.2.8-.2l.5 1.6.1-1.7c.7-.1 1.5-.2 2.3-.2 0 0 .7 1.8.7 2.7l-2.4-1.1 2.4 2.2c-.1.9-.4 1.8-.9 2.5l-3.2-2.2 2.7 2.9-.2.2-3.8-2.7 2.5 3.6c-.8.4-1.7.7-2.7.7-.7 0-1.5-.1-2.1-.4v1.2c0 7-.1 20-.1 20.1h-.5c-.1 0 .1-13.1.1-20.1zm-7.1 1.9c0-.9.2-1.7.6-2.3 1.2 0 2.2 0 3 .2v1.3l.7-1c1.4.6 2 1.9 2 5.1v14.8h-.5v-13.6c-.5.1-.9.2-1.4.2-.9 0-1.8-.3-2.5-.7l2-3.5-2.7 3c-.3-.3-.5-.6-.7-.9l1.6-2.1-1.9 1.6c0-.9-.2-1.4-.2-2.1z"/><path class="st1" d="M169.6 164.9c.3.5.5 1.1.5 1.8 0 .8-.3 1.6-.8 2.2l-1.5-.9.9 1.6-.1.1-2.6-2 1.8 2.4c-.3.1-.7.2-1.1.2-.5 0-1-.1-1.4-.3 0-3.8 1-5.1 4.3-5.1zm-9.8 4.9c-.4.6-.6 1.4-.6 2.2 0 1 .4 2 1 2.7l1.9-1.1-1.1 1.9c.1 0 .1.1.2.1l3.2-2.5-2.3 2.9c.4.1.9.2 1.4.2.6 0 1.2-.1 1.8-.4-.2-4.4-1.4-5.9-5.5-6z"/><path class="st7" d="M158.5 147.6h23.1v1.5h-23.1z"/><path class="st7" d="M165.4 136.5h1.5v11.8h-1.5zm7.8 0h1.5v11.8h-1.5zm-17.3 44.4h28.2v3.3h-28.2z"/><path class="st11" d="M155.9 184.1h28.2v1.9c0 1-.8 1.8-1.8 1.8h-24.6c-1 0-1.8-.8-1.8-1.8v-1.9z"/><path class="st12" d="M159.6 143.4c.5-.6 1-.3 1.4-1 .4-.7-.1-1 .4-1.7.4-.7 1-.3 1.4-1s0-1 .4-1.7c.2-.4.8-.6.8-.6h-4.5v6.5c0 .2 0-.3.1-.5zm20.7 0c-.5-.6-1-.3-1.4-1-.4-.7.1-1-.4-1.7-.4-.7-1-.3-1.4-1-.4-.7 0-1-.4-1.7-.2-.4-.8-.6-.8-.6h4.5v6.5c0 .2 0-.3-.1-.5z"/><path class="st11" d="M184.7 135.3c-3.1-4.5-8.6-7.4-14.8-7.4s-11.6 3-14.8 7.4h29.6z"/><path class="st10" d="M166.9 128.1l.4 7.2h5.5l.4-7.1c-1-.2-2.1-.3-3.2-.3s-2.1.1-3.1.2zm10.8 7.2h7c-1.5-2.1-3.5-3.9-5.8-5.1l-1.2 5.1zm-15.6 0h-7c1.5-2.1 3.5-3.9 5.8-5.1l1.2 5.1z"/><path class="st7" d="M182.7 161.1h4.1v4.1h-4.1z"/><path class="st7" d="M186.8 135.3H153v4.1h4.1v43.8h25.6v-43.8h4.1v-4.1zm-6.4 45.6h-20.9v-43.3h20.9v43.3z"/><path class="st7" d="M153 161.1h4.1v4.1H153z"/><path class="st1" d="M199.5 136.5h23.2v45.6h-23.2z"/><path class="st6" d="M222.8 180.9v-39.7l-7.4 7.4h6.5v1.1h-7.7l-14.7 14.7v17.7h22.1z"/><path class="st7" d="M199.7 147.6h23.1v1.5h-23.1z"/><path class="st7" d="M206.6 136.5h1.5v11.8h-1.5zm7.8 0h1.5v11.8h-1.5z"/><path class="st8" d="M215.9 174.1c0 1.9-.9 3.4-.9 3.4s-.9-1.5-.9-3.4.9-3.4.9-3.4.9 1.5.9 3.4z"/><path class="st8" d="M214.5 175.5c.7 1.4.5 2.8.5 2.8s-1.2-.8-1.8-2.2-.5-2.8-.5-2.8 1.1.8 1.8 2.2z"/><path class="st8" d="M215.4 175.5c-.7 1.4-.5 2.8-.5 2.8s1.2-.8 1.8-2.2.5-2.8.5-2.8-1.2.8-1.8 2.2z"/><path class="st11" d="M214.9 180.9c-1 0-1.9-.8-1.9-1.9v-2h3.7v2c.1 1.1-.8 1.9-1.8 1.9z"/><path transform="rotate(-4.549 207.433 167.894) scale(.99995)" class="st8" d="M207.3 165.2h.4v5.4h-.4z"/><path transform="rotate(-64.793 208.093 167.144)" class="st8" d="M206.7 167h2.7v.4h-2.7z"/><path class="st16" d="M207.7 180.9c-.8 0-1.5-.7-1.5-1.5v-4.5c0-.8.7-1.5 1.5-1.5s1.5.7 1.5 1.5v4.5c0 .8-.7 1.5-1.5 1.5z"/><path class="st16" d="M207.1 170.3h1.2v3.9h-1.2z"/><circle class="st11" cx="207.2" cy="164.8" r=".5"/><circle class="st11" cx="209.3" cy="165.8" r=".4"/><circle class="st11" cx="208.9" cy="166.9" r=".4"/><circle class="st11" cx="208.4" cy="167.7" r=".4"/><path class="st7" d="M197.2 180.9h28.2v3.3h-28.2z"/><path class="st11" d="M197.2 184.1h28.2v1.9c0 1-.8 1.8-1.8 1.8H199c-1 0-1.8-.8-1.8-1.8v-1.9z"/><path class="st12" d="M200.8 143.4c.5-.6 1-.3 1.4-1 .4-.7-.1-1 .4-1.7.4-.7 1-.3 1.4-1 .4-.7 0-1 .4-1.7.2-.4.8-.6.8-.6h-4.5v6.5c0 .2 0-.3.1-.5zm20.7 0c-.5-.6-1-.3-1.4-1-.4-.7.1-1-.4-1.7-.4-.7-1-.3-1.4-1-.4-.7 0-1-.4-1.7-.2-.4-.8-.6-.8-.6h4.5v6.5c0 .2 0-.3-.1-.5z"/><path class="st11" d="M225.9 135.3c-3.1-4.5-8.6-7.4-14.8-7.4s-11.6 3-14.8 7.4h29.6z"/><path class="st10" d="M208.1 128.1l.4 7.2h5.5l.4-7.1c-1-.2-2.1-.3-3.2-.3s-2.1.1-3.1.2zm10.8 7.2h7c-1.5-2.1-3.5-3.9-5.8-5.1l-1.2 5.1zm-15.5 0h-7c1.5-2.1 3.5-3.9 5.8-5.1l1.2 5.1z"/><path class="st7" d="M223.9 161.1h4.1v4.1h-4.1z"/><path class="st7" d="M228 135.3h-33.8v4.1h4.1v43.8h25.6v-43.8h4.1v-4.1zm-6.4 45.6h-20.9v-43.3h20.9v43.3z"/><path class="st7" d="M194.2 161.1h4.1v4.1h-4.1z"/><path class="st11" d="M142.9 55.3h1.4v156.5h-1.4z"/><path class="st17" d="M142.9 172.9h1.4v4.1h-1.4z"/><path class="st7" d="M182.7 149h15.7v4.1h-15.7zm-38.3 0h12.8v4.1h-12.8zm79.5 0h16.9v4.1h-16.9z"/><path class="st17" d="M142.9 149h1.4v4.1h-1.4z"/><path class="st13" d="M94.9 122.6h4.5v9.1h-4.5z"/><path class="st18" d="M94.9 122.6h4.5v3.3h-4.5z"/><path class="st13" d="M131.7 122.6h4.5v9.1h-4.5z"/><path class="st18" d="M131.7 122.6h4.5v3.3h-4.5z"/><path class="st11" d="M85.6 55.3h154.2v2H85.6z"/><path class="st10" d="M115.7 43.4v-7.7c0-15.2 12.3-27.5 27.5-27.5h39c15.2 0 27.5 12.3 27.5 27.5v7.7h-94z"/><path class="st5" d="M90.5 35h145.2v17H90.5z"/><path class="st11" d="M206.8 35h28.9v1.3h-28.9zM90.5 35h28.2v1.3H90.5z"/><path class="st10" d="M90.5 31.8h145.1c.9 0 1.7.7 1.7 1.7 0 .9-.7 1.7-1.7 1.7H90.5c-.9 0-1.7-.7-1.7-1.7s.8-1.7 1.7-1.7zM140.2 0h44.4c.9 0 1.7.7 1.7 1.7 0 .9-.7 1.7-1.7 1.7h-44.4c-.9 0-1.7-.7-1.7-1.7s.8-1.7 1.7-1.7z"/><path class="st5" d="M182.2 11.1h-39c-13.6 0-24.6 11-24.6 24.6v4.8h88.1v-4.8c.1-13.6-10.9-24.6-24.5-24.6z"/><path class="st11" d="M206.8 35.1c-.3-13.3-11.2-24-24.6-24h-39c-13.6 0-24.6 11-24.6 24.6v.6c.7-13 11.4-23.2 24.5-23.2h39c12.7 0 23.2 9.7 24.4 22h.3z"/><path class="st5" d="M141.2 3.3h43v13.5h-43z"/><path class="st5" d="M141.2 3.3h43v13.5h-43z"/><path class="st1" d="M143.7 21.3h15.8V45h-15.8z"/><path class="st6" d="M153.8 21.4v9.7c0 1.5 1.3 2.8 2.8 2.8h.2V45h2.3V21.3l-5.3.1zm-4.4 0v9.7c0 1.5-1.3 2.8-2.8 2.8h-.2V45H144V21.3l5.4.1z"/><path class="st7" d="M160.2 45.7h-17.4V20.5h17.4v25.2zm-15.7-1.5h14.2V22.1h-14.2v22.1z"/><path class="st7" d="M143.8 28.2h15.7v1h-15.7z"/><path class="st12" d="M144.6 26.1c.3-.4.7-.2 1-.7.3-.4-.1-.7.2-1.1.3-.4.7-.2 1-.7s0-.7.2-1.1c.1-.3.5-.4.5-.4h-3v4.4s0-.4.1-.4zm14 0c-.3-.4-.7-.2-1-.7-.3-.4.1-.7-.2-1.1-.3-.4-.7-.2-1-.7-.3-.4 0-.7-.2-1.1-.1-.3-.5-.4-.5-.4h3v4.4s0-.4-.1-.4z"/><path class="st11" d="M160.2 20.5c-1.8-2.6-5-4.4-8.7-4.4-3.6 0-6.8 1.7-8.7 4.4h17.4z"/><path class="st10" d="M149.8 16.3l.2 4.2h3.3l.2-4.2c-.6-.1-1.2-.2-1.9-.2s-1.3.1-1.8.2zm6.3 4.2h4.1c-.9-1.2-2-2.3-3.4-3l-.7 3zm-9.1 0h-4.1c.9-1.2 2-2.3 3.4-3l.7 3z"/><path class="st1" d="M166.1 21.3h15.8V45h-15.8z"/><path class="st6" d="M176.3 21.4v9.7c0 1.5 1.3 2.8 2.8 2.8h.2V45h2.3V21.3l-5.3.1zm-4.4 0v9.7c0 1.5-1.3 2.8-2.8 2.8h-.2V45h-2.3V21.3l5.3.1z"/><path class="st7" d="M182.7 45.7h-17.4V20.5h17.4v25.2zm-15.8-1.5h14.2V22.1h-14.2v22.1z"/><path class="st7" d="M166.2 28.2h15.7v1h-15.7z"/><path class="st12" d="M167 26.1c.3-.4.7-.2 1-.7.3-.4-.1-.7.2-1.1.3-.4.7-.2 1-.7.3-.4 0-.7.2-1.1.1-.3.5-.4.5-.4h-3v4.4l.1-.4zm14.1 0c-.3-.4-.7-.2-1-.7-.3-.4.1-.7-.2-1.1-.3-.4-.7-.2-1-.7-.3-.4 0-.7-.2-1.1-.1-.3-.5-.4-.5-.4h3v4.4l-.1-.4z"/><path class="st11" d="M182.7 20.5c-1.8-2.6-5-4.4-8.7-4.4-3.6 0-6.8 1.7-8.7 4.4h17.4z"/><path class="st10" d="M172.2 16.3l.2 4.2h3.3l.2-4.2c-.6-.1-1.2-.2-1.9-.2-.6 0-1.2.1-1.8.2zm6.4 4.2h4.1c-.9-1.2-2-2.3-3.4-3l-.7 3zm-9.1 0h-4.1c.9-1.2 2-2.3 3.4-3l.7 3z"/><path class="st11" d="M141.2 3.3h43v1.6h-43zM198 48.2h-4.7c-.4 0-.7-.3-.7-.7v-1.1c0-.4.3-.7.7-.7h4.7c.4 0 .7.3.7.7v1.1c0 .4-.3.7-.7.7zm7.7-4.5H201c-.4 0-.7-.3-.7-.7v-1.1c0-.4.3-.7.7-.7h4.7c.4 0 .7.3.7.7V43c0 .3-.3.7-.7.7zm-3.5-3.9h-4.7c-.4 0-.7-.3-.7-.7V38c0-.4.3-.7.7-.7h4.7c.4 0 .7.3.7.7v1.1c0 .4-.3.7-.7.7zm-74.1 6.1h4.7c.4 0 .7-.3.7-.7v-1.1c0-.4-.3-.7-.7-.7h-4.7c-.4 0-.7.3-.7.7v1.1c0 .4.3.7.7.7zm-18-4.5h4.7c.4 0 .7-.3.7-.7v-1.1c0-.4-.3-.7-.7-.7h-4.7c-.4 0-.7.3-.7.7v1.1c0 .4.3.7.7.7z"/><path class="st10" d="M83.4 52h158.5v1.2c0 1.2-.9 2.1-2.1 2.1H85.5c-1.2 0-2.1-.9-2.1-2.1V52z"/><path class="st13" d="M90.5 50.5h49.7v72.1H90.5z"/><path class="st1" d="M97.5 68h14.9v41.5H97.5z"/><path class="st6" d="M112.4 79.3L97.5 94.2v15.4h14.9z"/><path class="st1" d="M108.8 103.8c-.2-.1-.2-.3-.1-.5.2-.3.4-.7.4-1 0-.8-.5-1.4-1.3-1.8.5-.3.9-.8.9-1.3 0-.4-.2-.8-.6-1.1H105c-.4.3-.6.7-.6 1.1 0 .4.2.7.4 1 .2.2.2.4 0 .6-.5.4-.9.9-.9 1.5 0 .4.1.7.4 1 .1.2.1.4-.1.5-.7.5-1.2 1.2-1.2 2.1 0 1.5 1.6 2.7 3.5 2.7s3.5-1.2 3.5-2.7c0-.8-.4-1.6-1.2-2.1z"/><path class="st1" d="M108.2 96.8c-.6 1.8-1.2 2.5-1.5 2.4s-.4-1 .2-2.9c.6-1.8 1.9-3.7 1.9-3.7s0 2.4-.6 4.2z"/><path class="st1" d="M107 95.7c0 2.4-.3 3.4-.7 3.4-.4 0-.7-1.1-.7-3.4 0-2.4.7-5.1.7-5.1s.7 2.8.7 5.1z"/><path class="st1" d="M104.8 96.9c.8 1.7 1.4 2.4 1.8 2.2.3-.2.3-1.1-.5-2.8s-2.3-3.5-2.3-3.5.2 2.4 1 4.1z"/><path class="st7" d="M113.5 110.6H96.4V67h17.1v43.6zm-14.9-2.1h12.8V69.1H98.6v39.4z"/><path class="st7" d="M97.6 78.1h14.8v1.3H97.6z"/><path class="st12" d="M98.6 74.4c.4-.6.9-.3 1.3-.9.4-.6-.1-.9.3-1.5s.9-.3 1.3-.9c.4-.6 0-.9.3-1.5.2-.3.7-.5.7-.5h-4.1v6c.1-.1.2-.6.2-.7zm12.7 0c-.4-.6-.9-.3-1.3-.9-.4-.6.1-.9-.3-1.5s-.9-.3-1.3-.9c-.4-.6 0-.9-.3-1.5-.2-.3-.7-.5-.7-.5h4.1v6c-.1-.1-.1-.6-.2-.7z"/><path class="st1" d="M118.2 68h14.9v41.5h-14.9z"/><path class="st6" d="M129.4 68h-5.7l-5.5 5.5v32.9l14.9-14.9V71.8l-3.7-3.8zm3.5 12.1h-14v-.8h14v.8z"/><path class="st7" d="M134.2 110.6h-17.1V67h17.1v43.6zm-14.9-2.1h12.8V69.1h-12.8v39.4z"/><path class="st7" d="M118.4 78.1h14.8v1.3h-14.8z"/><path class="st12" d="M119.4 74.4c.4-.6.9-.3 1.3-.9.4-.6-.1-.9.3-1.5s.9-.3 1.3-.9c.4-.6 0-.9.3-1.5.2-.3.7-.5.7-.5h-4.1v6c0-.1.1-.6.2-.7zm12.6 0c-.4-.6-.9-.3-1.3-.9-.4-.6.1-.9-.3-1.5s-.9-.3-1.3-.9c-.4-.6 0-.9-.3-1.5-.2-.3-.7-.5-.7-.5h4.1v6c0-.1-.1-.6-.2-.7z"/><path class="st19" d="M90.5 114.1h49.7v1.2H90.5z"/><path class="st11" d="M186.7 126.2H182c-.4 0-.7-.3-.7-.7v-1.1c0-.4.3-.7.7-.7h4.7c.4 0 .7.3.7.7v1.1c-.1.4-.4.7-.7.7zm7.7 0h-4.7c-.4 0-.7-.3-.7-.7v-1.1c0-.4.3-.7.7-.7h4.7c.4 0 .7.3.7.7v1.1c0 .4-.3.7-.7.7zm-3.6-3.9h-4.7c-.4 0-.7-.3-.7-.7v-1.1c0-.4.3-.7.7-.7h4.7c.4 0 .7.3.7.7v1.1c0 .4-.3.7-.7.7zm42.4-42h4.7c.4 0 .7-.3.7-.7v-1.1c0-.4-.3-.7-.7-.7h-4.7c-.4 0-.7.3-.7.7v1.1c0 .4.3.7.7.7zm3.6-6.4h3.1v2.5h-3.1c-.4 0-.7-.3-.7-.7v-1.1c0-.4.3-.7.7-.7z"/><path class="st19" d="M90.5 50.5h49.7v3.3H90.5z"/><path class="st20" d="M93.3 56.3h8.2v8.2h-8.2zm12.1 0h8.2v8.2h-8.2zm12 0h8.2v8.2h-8.2zm12.1 0h8.2v8.2h-8.2z"/><path class="st3" d="M241.5 202.1h81.6c4 0 7.3 3.2 7.3 7.3v7.1h-96.5v-6.8c0-4.2 3.4-7.6 7.6-7.6zm-214-7.3c5.9-2.1 10.1-7.8 10.1-14.4v-1.7H25.8c4.9-1.5 8.5-6.1 8.5-11.5v-1.3H26c3.4-1.5 5.8-4.8 5.8-8.8v-1H12.6v1c0 3.9 2.4 7.3 5.8 8.8h-8.3v1.3c0 5.4 3.6 10 8.5 11.5H6.9v1.7c0 6.6 4.2 12.2 10.1 14.4H2.9v2.1c0 10.7 8.6 19.3 19.3 19.3 10.7 0 19.3-8.6 19.3-19.3v-2.1h-14zm-.4-43.6c0-2.7-2.2-4.9-4.9-4.9s-4.9 2.2-4.9 4.9 2.2 4.9 4.9 4.9 4.9-2.2 4.9-4.9z"/><path class="st2" d="M25.8 178.8c2-.6 3.8-1.8 5.3-3.3H13.3c1.4 1.5 3.2 2.7 5.3 3.3H9.8h27.7-11.7zm-8.8 16h10.5c2.2-.8 4.2-2.1 5.8-3.7h-22c1.5 1.6 3.5 2.9 5.7 3.7zm17.3-28.9H26c1.5-.6 2.7-1.6 3.7-2.9h-15c1 1.2 2.2 2.2 3.7 2.9h-8.3 24.2z"/><path class="st3" d="M49.1 202.1h46.7c4 0 7.3 3.2 7.3 7.3v7.1H41.5v-6.8c0-4.2 3.4-7.6 7.6-7.6z"/><path class="st1" d="M16.3 216.4h-1.2v-19.8c0-3.4-2.7-6.1-6.1-6.1s-6.1 2.7-6.1 6.1v19.8H1.7v-19.8c0-4 3.3-7.3 7.3-7.3s7.3 3.3 7.3 7.3v19.8z"/><path class="st1" d="M8.4 196.8h1.2v19.6H8.4zm28.2 19.6h-1.2v-19.8c0-3.4-2.7-6.1-6.1-6.1s-6.1 2.7-6.1 6.1v19.8H22v-19.8c0-4 3.3-7.3 7.3-7.3s7.3 3.3 7.3 7.3v19.8z"/><path class="st1" d="M28.7 196.8h1.2v19.6h-1.2zM57 216.4h-1.2v-19.8c0-3.4-2.7-6.1-6.1-6.1s-6.1 2.7-6.1 6.1v19.8h-1.2v-19.8c0-4 3.3-7.3 7.3-7.3s7.3 3.3 7.3 7.3v19.8z"/><path class="st1" d="M49 196.8h1.2v19.6H49zm28.3 19.6h-1.2v-19.8c0-3.4-2.7-6.1-6.1-6.1s-6.1 2.7-6.1 6.1v19.8h-1.2v-19.8c0-4 3.3-7.3 7.3-7.3s7.3 3.3 7.3 7.3v19.8z"/><path class="st1" d="M69.4 196.8h1.2v19.6h-1.2zm28.2 19.6h-1.2v-19.8c0-3.4-2.7-6.1-6.1-6.1s-6.1 2.7-6.1 6.1v19.8H83v-19.8c0-4 3.3-7.3 7.3-7.3s7.3 3.3 7.3 7.3v19.8z"/><path class="st1" d="M89.7 196.8h1.2v19.6h-1.2z"/><path class="st1" d="M2.3 196.3h94.8v1H2.3zm0 8.6h94.8v1H2.3z"/><path class="st1" d="M96.1 186.3h2v30.1h-2z"/><circle class="st1" cx="97.1" cy="186.3" r="2"/><path class="st1" d="M1.3 186.3h2v30.1h-2z"/><circle class="st1" cx="2.3" cy="186.3" r="2"/><path class="st1" d="M148.8 216.4h-1.2v-19.8c0-3.4-2.7-6.1-6.1-6.1s-6.1 2.7-6.1 6.1v19.8h-1.2v-19.8c0-4 3.3-7.3 7.3-7.3s7.3 3.3 7.3 7.3v19.8z"/><path class="st1" d="M140.9 196.8h1.2v19.6h-1.2zm28.2 19.6h-1.2v-19.8c0-3.4-2.7-6.1-6.1-6.1s-6.1 2.7-6.1 6.1v19.8h-1.2v-19.8c0-4 3.3-7.3 7.3-7.3s7.3 3.3 7.3 7.3v19.8z"/><path class="st1" d="M161.2 196.8h1.2v19.6h-1.2zm28.3 19.6h-1.2v-19.8c0-3.4-2.7-6.1-6.1-6.1s-6.1 2.7-6.1 6.1v19.8h-1.2v-19.8c0-4 3.3-7.3 7.3-7.3s7.3 3.3 7.3 7.3v19.8z"/><path class="st1" d="M181.6 196.8h1.2v19.6h-1.2zm28.2 19.6h-1.2v-19.8c0-3.4-2.7-6.1-6.1-6.1s-6.1 2.7-6.1 6.1v19.8h-1.2v-19.8c0-4 3.3-7.3 7.3-7.3s7.3 3.3 7.3 7.3v19.8z"/><path class="st1" d="M201.9 196.8h1.2v19.6h-1.2zm28.2 19.6h-1.2v-19.8c0-3.4-2.7-6.1-6.1-6.1s-6.1 2.7-6.1 6.1v19.8h-1.2v-19.8c0-4 3.3-7.3 7.3-7.3s7.3 3.3 7.3 7.3v19.8z"/><path class="st1" d="M222.2 196.8h1.2v19.6h-1.2zm28.1 19.6h-1.2v-19.8c0-3.4-2.7-6.1-6.1-6.1s-6.1 2.7-6.1 6.1v19.8h-1.2v-19.8c0-4 3.3-7.3 7.3-7.3s7.3 3.3 7.3 7.3v19.8z"/><path class="st1" d="M242.4 196.8h1.2v19.6h-1.2zm28.2 19.6h-1.2v-19.8c0-3.4-2.7-6.1-6.1-6.1s-6.1 2.7-6.1 6.1v19.8H256v-19.8c0-4 3.3-7.3 7.3-7.3s7.3 3.3 7.3 7.3v19.8z"/><path class="st1" d="M262.7 196.8h1.2v19.6h-1.2zm28.2 19.6h-1.2v-19.8c0-3.4-2.7-6.1-6.1-6.1s-6.1 2.7-6.1 6.1v19.8h-1.2v-19.8c0-4 3.3-7.3 7.3-7.3s7.3 3.3 7.3 7.3v19.8z"/><path class="st1" d="M283 196.8h1.2v19.6H283zm28.1 19.6h-1.2v-19.8c0-3.4-2.7-6.1-6.1-6.1s-6.1 2.7-6.1 6.1v19.8h-1.2v-19.8c0-4 3.3-7.3 7.3-7.3s7.3 3.3 7.3 7.3v19.8z"/><path class="st1" d="M303.2 196.8h1.2v19.6h-1.2zm28.2 19.6h-1.2v-19.8c0-3.4-2.7-6.1-6.1-6.1s-6.1 2.7-6.1 6.1v19.8h-1.2v-19.8c0-4 3.3-7.3 7.3-7.3s7.3 3.3 7.3 7.3v19.8z"/><path class="st1" d="M323.5 196.8h1.2v19.6h-1.2z"/><path class="st1" d="M134.8 196.3h196v1h-196zm0 8.6h196v1h-196z"/><path class="st1" d="M329.9 186.3h2v30.1h-2z"/><circle class="st1" cx="330.9" cy="186.3" r="2"/><path class="st1" d="M133.8 186.3h2v30.1h-2z"/><circle class="st1" cx="134.8" cy="186.3" r="2"/><g id="XMLID_1481_"><path class="st5" d="M89.9 154l-.8-5.2h8.1l-.8 5.2z" id="XMLID_1492_"/><path class="st7" d="M89.9 154l.3 1.5h5.9l.3-1.5z" id="XMLID_1491_"/><path class="st1" d="M93.1 159.6c-.3 0-.5-.2-.5-.5v-10.3c0-.3.2-.5.5-.5s.5.2.5.5v10.3c0 .3-.2.5-.5.5z" id="XMLID_1485_"/><path class="st1" d="M96.5 156.1h-6.8l-1.2-7.8h9.1l-1.1 7.8zm-5.9-1h5.2l.9-5.9h-6.9l.8 5.9z" id="XMLID_1484_"/><path class="st1" d="M93.4 145.8l4.8 2.4c.5.3.4 1.1-.2 1.1h-9.7c-.6 0-.8-.8-.2-1.1l4.8-2.4c.2-.1.3-.1.5 0z" id="XMLID_1483_"/><path transform="rotate(-180 93.183 154.612)" class="st1" d="M91.6 153.6h3.3v2h-3.3z" id="XMLID_1482_"/><path class="st1" d="M95.4 159.8h-4.5c-.3 0-.5-.2-.5-.5s.2-.5.5-.5h4.5c.3 0 .5.2.5.5s-.2.5-.5.5z"/><path class="st1" d="M93.6 161h-.9c-.1 0-.2-.1-.2-.2v-1.5c0-.1.1-.2.2-.2h.9c.1 0 .2.1.2.2v1.5c0 .1-.1.2-.2.2z"/><circle class="st1" cx="93.2" cy="144.9" r="1.2"/></g></svg>