<svg id="silhouet" xmlns="http://www.w3.org/2000/svg" width="1032" height="232"><style>.st0{fill:#fff}</style><path class="st0" d="M934.6 35.5c-1.3-4.5-5.5-7.8-10.4-7.8s-9.1 3.3-10.4 7.8h20.8z"/><path class="st0" d="M970.3 35.5c-2.3-8-9.7-13.8-18.4-13.8s-16.1 5.8-18.4 13.8h36.8zM530.5 77.2c1.3-4.3 5.2-7.4 9.9-7.4s8.6 3.1 9.9 7.4h-19.8zm-47.9 0c1.3-4.3 5.2-7.4 9.9-7.4s8.6 3.1 9.9 7.4h-19.8z"/><path class="st0" d="M501 77.2c2-6.6 8.1-11.4 15.3-11.4s13.3 4.8 15.3 11.4H501z"/><path class="st0" d="M1031.9 212.1v-19c0-12.5-10.2-22.7-22.7-22.7h-66v-49.6c0-6.7-5.4-12.1-12.1-12.1H920c-6.7 0-12.1-5.4-12.1-12.1V84.1c0-6.7-5.4-12.1-12.1-12.1h-67.4v140.1h203.5zM697.1 38.9l-33.2 44.3-33.2-44.3-33.2 44.3H590v7.9h4.3v15.5h-29.7v-7.8h-6.7v7.8h-12.3l-18.7 32.1v55h-28v-12.5c8.5-1 15-8.2 15-16.9v-32.9c0-9.5-7.8-17.6-17.3-17.4-9.2.2-16.7 7.7-16.7 17v33.4c0 8.7 6.6 15.9 15 16.9v12.5H484v-9h-9.3v-9.3h-8.8v-74.8h.1c1.1 0 2.1-.7 2.5-1.7.6-1.8-.7-3.5-2.5-3.5h-69.9V68.8h13.2l-16.8-12.7-20.4-40.4-20.4 40.4L335 68.8h13.2v47.1l-.7-.8-41 33.8 3.8 4.6 2.6-2.2v42.4h-47v-12.5c8.5-1 15-8.2 15-16.9V131c0-9.4-7.6-17-17-17-.6 0-1.1 0-1.7.1V70.9h1.2c3.3 0 5.9-2.7 5.9-5.9v-3.8h-7.1V61h-.8L241 22.8H43.6L19.8 61h-1.7v.1h-6.4V65c0 3.3 2.7 5.9 5.9 5.9h.5v80.2h-5.2C5.8 151.1 0 156.9 0 164v48h185.5v-22.8c-11.9-1.3-21.1-11.4-21.1-23.7 0-4.6 1.3-9 3.6-12.6 2.3-3.6 3.2-8 2-12.1-.5-1.7-.7-3.4-.7-5.2 0-3.8 1.1-7.3 3-10.3 2-3 2.5-6.8 1.6-10.3-.4-1.7-.5-3.4-.3-5.3.8-6.7 6.2-12.1 12.9-12.9 8.9-1 16.4 5.9 16.4 14.6 0 1.2-.1 2.4-.4 3.5-.9 3.5-.4 7.2 1.6 10.2 1.9 3 3 6.5 3 10.3 0 1.8-.3 3.5-.7 5.2-1.2 4-.4 8.4 1.8 11.9 2.6 4 4 8.9 3.7 14.1-.6 11.7-9.7 21.1-21.1 22.4v22.8h541.9V91.2h4.3v-7.9h-6.8l-33.1-44.4zM66 58.1H55.7v-22H66v22zm16.2 0H71.8v-22h10.4v22zm32.4 0h-10.4v-22h10.4v22zm16.2 0h-10.4v-22h10.4v22zm30.5 0h-10.4v-22h10.4v22zm16.1 0H167v-22h10.4v22zm30.7 0h-10.4v-22h10.4v22zm16.1 0h-10.4v-22h10.4v22zm403.4 63.7h-13v-20.2c0-3.6 2.9-6.5 6.5-6.5s6.5 2.9 6.5 6.5v20.2zm22 0h-13v-20.2c0-3.6 2.9-6.5 6.5-6.5s6.5 2.9 6.5 6.5v20.2z"/></svg>