<svg id="links" xmlns="http://www.w3.org/2000/svg" width="180" height="232"><style>.st0{fill:#55241a}.st1{fill:#00aae6}.st2{fill:#fff}.st3{fill:#f8b000}.st4{fill:#f6861e}.st5{fill:#815d55}.st6{fill:#008de6}.st7{fill:#ffc92f}.st8{fill:#7c90a6}.st9{fill:#fe9b00}.st10{fill:#f89700}.st11{fill:#84d0f0}</style><path class="st0" d="M27.6 113.2h3.9v58.4h-3.9z"/><path class="st0" d="M32.8 223.3h-6.6v-55.2c0-1.8 1.5-3.3 3.3-3.3 1.8 0 3.3 1.5 3.3 3.3v55.2z"/><circle class="st1" cx="29.1" cy="108.9" r="20.1"/><path class="st2" d="M29.1 126.1c-9.5 0-17.3-7.7-17.3-17.3s7.7-17.3 17.3-17.3 17.3 7.7 17.3 17.3-7.8 17.3-17.3 17.3zm0-33c-8.7 0-15.8 7.1-15.8 15.8s7.1 15.8 15.8 15.8 15.8-7.1 15.8-15.8-7.1-15.8-15.8-15.8z"/><path class="st2" d="M21.2 114.7c-2.4 0-4.3-1.9-4.3-4.3s1.9-4.3 4.3-4.3 4.3 1.9 4.3 4.3-2 4.3-4.3 4.3zm0-7.6c-1.8 0-3.3 1.5-3.3 3.3 0 1.8 1.5 3.3 3.3 3.3s3.3-1.5 3.3-3.3c0-1.8-1.5-3.3-3.3-3.3zm15.2 7.6c-2.4 0-4.3-1.9-4.3-4.3s1.9-4.3 4.3-4.3 4.3 1.9 4.3 4.3-1.9 4.3-4.3 4.3zm0-7.6c-1.8 0-3.3 1.5-3.3 3.3 0 1.8 1.5 3.3 3.3 3.3s3.3-1.5 3.3-3.3c0-1.8-1.4-3.3-3.3-3.3z"/><path class="st2" d="M36.4 111.1h-7.2c-.2 0-.3-.1-.4-.2L24 104c-.1-.2-.1-.4 0-.5.1-.2.3-.3.4-.3h8c.2 0 .3.1.4.2l3.9 6.8c.1.2.1.3 0 .5 0 .3-.1.4-.3.4zm-7-1h6.1l-3.4-5.8h-6.8l4.1 5.8z"/><path transform="rotate(-67.443 31.652 106.03)" class="st2" d="M26.7 105.5h9.8v1h-9.8z"/><path class="st2" d="M21.3 110.8h-.2c-.2-.1-.4-.4-.2-.7l4.8-10.3c.1-.2.3-.3.5-.3h2c.3 0 .5.2.5.5s-.2.5-.5.5h-1.7l-4.7 10c-.2.2-.4.3-.5.3zm13.8-8.8H32c-.3 0-.5-.2-.5-.5s.2-.5.5-.5h3.1c.3 0 .5.2.5.5s-.2.5-.5.5z"/><g id="XMLID_5_"><path class="st1" d="M106.5 195.7h-9l1.1-8.4c.3-2.2 2.2-3.9 4.4-3.9 2.7 0 4.8 2.4 4.4 5l-.9 7.3z"/><circle class="st3" cx="104.4" cy="177.5" r="7.6"/><path class="st2" d="M108.8 179.2c0 1.4-1.1 2.5-2.5 2.5s-2.5-1.1-2.5-2.5h5z" id="XMLID_25_"/><path class="st4" d="M96.8 176.9v.5c0 1.2.3 2.3.7 3.2 1.9-.2 3.5-1.7 3.7-3.6l.1-1.1-4.1-.3c-.2.4-.3.9-.4 1.3z"/><path class="st0" d="M115.4 173.7l-5.8.6.1 1.3 5.8-.6c.4 0 .6-.4.6-.7 0-.4-.4-.6-.7-.6z"/><path class="st0" d="M111.7 175.4c-.9-3.2-3.8-5.5-7.3-5.5-4 0-7.3 3.1-7.6 7.1l14.9-1.6z"/><path class="st4" d="M116.7 179.4l-1.1 8.2H131l1.5-9.4h-14.4z"/><path class="st4" d="M130.7 180.6c0-.1 0-.3.1-.4-.1-.1-.2-.3-.1-.5.2-.3.4-.6.5-.9.2-.5.5-1 .9-1.4-1.2-2.9-4.1-5-7.5-5-4.5 0-8.1 3.6-8.1 8.1 0 2.8 1.4 5.3 3.6 6.7.4-.9 1-1.5 1.8-2 .3-.2.8.1.7.5.1 0 .3 0 .4.1.2.1.3.4.2.7-.1.1-.1.2-.2.3.2-.1.5-.3.8-.4h.4c.9-.6 1.8-1.2 2.9-1.5.4-.1.6.2.6.6.1 0 .1 0 .2.1.2-.2.5-.4.8-.5.2-.1.4-.1.6.1-.1-.1-.1-.3 0-.4.1-.1.2-.2.3-.4-.3-.1-.5-.5-.2-.8l.4-.4c-.2-.2-.2-.5 0-.7.2-.2.4-.4.6-.7-.4 0-.7-.5-.4-.8.2-.1.4-.2.7-.4z"/><path class="st0" d="M127.4 197.3h-8.2l1-7.7c.3-2 2-3.6 4.1-3.6 2.5 0 4.4 2.2 4.1 4.6l-1 6.7z"/><circle class="st3" cx="125.5" cy="180.5" r="7"/><path class="st2" d="M129.5 182.3c0 1.3-1 2.3-2.3 2.3-1.3 0-2.3-1-2.3-2.3h4.6z" id="XMLID_27_"/><path class="st4" d="M127.6 175.8l.5 2.9h5.2c-.9-3.5-4-6.2-7.9-6.2s-7 2.6-7.9 6.2h8.4l1.7-2.9z"/><path class="st5" d="M153.2 186.3h-.9c-1.2 0-2.3-.5-3.1-1.3l-.7-.7c-.8-.9-2-1.3-3.1-1.3h-4.7v1.1c0 .6-.9 1.6-1.9 2.4-1.3 1.1-2 2.8-2 4.5v6.5l8.4.2v-5.8c0-.7.6-1.3 1.3-1.3h4.5c1.8 0 3.2-1.4 3.2-3.2.1-.6-.4-1.1-1-1.1z"/><path class="st0" d="M144.7 182c-.1 0-3.8.8-5.8 1.2-.6.1-1 .8-.7 1.4l.4 4.3h1.5l4.6-6.9z" id="XMLID_413_"/><path class="st6" d="M81.3 175.9l.9-1.5c.1-.2.2-.5.3-.7H81l-1.1-9.1c-.2-1.5-1.6-2.6-3.1-2.4-1.5.2-2.6 1.6-2.4 3.1l1.1 9.2c.3 2.2 1.9 4 4 4.5.4-.8.8-1.6 1.3-2.4.1-.1.3-.4.5-.7z"/><path class="st7" d="M92.6 191.6l5.3 25.6h39.2l13.2-18.7-1.1-3.7z"/><path class="st4" d="M78.3 137c-.6 0-1.1-.1-1.7-.2-1.9 0-.5-1.5-2.3-1.5-5.1 3-5.4 7.9-6.9 10.2-1.7 2.7-5.6 3.9-6.8 6.9-1.4 3.1-1.4 8.3 3.2 10 6.4 2.4 11.9-1.6 11.9-1.6l-1.3-8 7.7-15.5c-1.3-.1-2.6-.2-3.8-.3z"/><path class="st3" d="M78.3 192.5l2.6 3.7c1.2 1.8 1.7 4 1.2 6.1l-2.7 12.2 2.6.6 5-14.2c.8-2.3.5-4.7-.8-6.8l-2.2-3.4-5.7 1.8z"/><g id="XMLID_1400_"><path class="st8" d="M69.3 195.6h.2c.4-.1.6-.5.5-.9l-2.3-7.5c-.1-.4-.5-.6-.9-.5-.4.1-.6.5-.5.9l2.3 7.5c.2.3.4.5.7.5z" id="XMLID_1401_"/></g><g id="XMLID_28_"><path class="st9" d="M38.9 215.3c0 9.2 7.5 16.7 16.7 16.7s16.7-7.5 16.7-16.7-7.5-16.7-16.7-16.7c-9.2-.1-16.7 7.4-16.7 16.7zm2.5 0c0-7.9 6.4-14.3 14.3-14.3S70 207.4 70 215.3s-6.4 14.3-14.3 14.3-14.3-6.4-14.3-14.3z" id="XMLID_29_"/></g><path transform="rotate(-20.684 72.796 202.923)" class="st0" d="M71.7 189.9H74v26h-2.3z"/><g id="XMLID_62_"><path class="st9" d="M145.3 217.3c0 8.1 6.6 14.7 14.8 14.7 8.1 0 14.7-6.6 14.7-14.7s-6.6-14.7-14.7-14.7c-8.2-.1-14.8 6.5-14.8 14.7zm2.1 0c0-7 5.6-12.6 12.6-12.6s12.6 5.6 12.6 12.6-5.6 12.6-12.6 12.6c-6.9 0-12.6-5.7-12.6-12.6z" id="XMLID_63_"/></g><path class="st0" d="M160 218.2c-.3 0-.6-.1-.8-.4l-5.2-6.9c-.4-.6-.7-1.2-.9-1.8l-4.4-15.2c-.2-.5.2-1.1.7-1.2.5-.1 1.1.2 1.2.7l4.4 15.2c.1.4.3.8.6 1.2l5.2 6.9c.3.4.2 1.1-.2 1.4-.1.1-.3.1-.6.1z"/><path transform="rotate(-61.38 62.382 203.768)" class="st0" d="M49.1 202.8h26.5v2H49.1z"/><path class="st0" d="M79.4 221.2l-23.9-3c-1.4-.2-2.5-1.4-2.5-2.8 0-1.6 1.3-2.8 2.8-2.8h24c2.4 0 4.3 1.9 4.3 4.3.1 2.6-2.2 4.6-4.7 4.3z"/><g id="XMLID_1366_"><path class="st1" d="M74.6 222.5h6c.8 0 1.5.6 1.5 1.4 0 .8-.7 1.4-1.5 1.4h-6v-2.8z" id="XMLID_1367_"/></g><path class="st0" d="M55.7 198.5c-3.1 0-5.9.8-8.4 2.3l11.7 9.3h12.7c-2.3-6.7-8.6-11.6-16-11.6z"/><path class="st3" d="M67.8 198l4.2 8.2c.5 1 .8 2 1 3.1l1.6 13.2h3.2l-.8-14.4c0-.7-.1-1.3-.3-1.9l-3.3-11.9-5.6 3.7z"/><path class="st1" d="M59.7 179.5zm19.7-13.7c1.7-6.1 1-11.3-4.8-11.3-3.1 0-6 1.8-7.3 4.7l-6.5 15.9-.1.1c-.3.6-.5 1.2-.7 2h16.6l2.8-11.4zM60 177.2z"/><path class="st0" d="M76.1 179.7l-.1-.1.1-.2.5-2.2H60c-.1.3-.1.7-.2 1.1 0 .3 0 .6-.1.8v.6h16.4z"/><path class="st4" d="M78.5 152.5s10.4.3 10.4-9.6c0-5.3-5-9-9.6-9-5.5 0-9.9 4.5-9.9 9.9v7.2c0 1.4.3 2.8.9 4l-.1-9.3 8.3 6.8z"/><path class="st3" d="M79.3 159.1c-4.4 0-7.9-3.6-7.9-7.9V144c0-4.4 3.6-7.9 7.9-7.9 4.4 0 7.9 3.6 7.9 7.9v7.2c0 4.3-3.5 7.9-7.9 7.9z" id="XMLID_14_"/><path class="st2" d="M85.6 150.2c0 1.3-1.1 2.4-2.4 2.4s-2.4-1.1-2.4-2.4h4.8z" id="XMLID_6_"/><path class="st0" d="M72.4 190H61.9c-1.2 0-2.1-1-2.1-2.1 0-1.2 1-2.1 2.1-2.1h10.5v4.2z"/><g id="XMLID_7_"><circle class="st10" cx="90.2" cy="176.5" r="3.8" id="XMLID_13_"/></g><path class="st1" d="M76.1 179.7H59.7c.2 5.8 8.1 18.4 8.1 18.4l16.3-7.3-8-11.1z"/><path class="st0" d="M96.5 218.4l-7.6-39.1c-.1-.5-.5-.8-1-.8h-4.6v-2h4.6c1.4 0 2.7 1 2.9 2.4l7.6 39.1-1.9.4z"/><g id="XMLID_15_"><circle class="st3" cx="87" cy="176.5" r="3.8" id="XMLID_18_"/></g><path class="st0" d="M64.8 200.3c-.2 0-.4-.1-.5-.2l-2.6-2.7H45.5c-.4 0-.8-.3-.8-.8s.3-.8.8-.8h16.8l3 3.2c.3.3.3.8 0 1.1-.1.1-.3.2-.5.2zm92.7-2.5h-2.3c-1.3 0-2.3-1-2.3-2.3 0-1.3 1-2.3 2.3-2.3h2.3v4.6z"/><path class="st0" d="M151 199.6c-.2 0-.4-.1-.5-.2-.3-.3-.3-.8 0-1.1l2.9-2.9c.3-.3.8-.3 1.1 0s.3.8 0 1.1l-2.9 2.9c-.2.1-.4.2-.6.2z"/><path class="st0" d="M145.4 217.4h-1.1c0-8.8 7.1-15.9 15.9-15.9v1.1c-8.2 0-14.8 6.7-14.8 14.8z" id="XMLID_26_"/><path class="st0" d="M73.7 215.6h-1.2c0-9.2-7.5-16.8-16.8-16.8s-16.8 7.5-16.8 16.8h-1.2c0-9.9 8.1-18 18-18s18 8.1 18 18z" id="XMLID_22_"/><path class="st4" d="M84 143.4c-2.5 1.4-5 .3-6.5 1.6-2 1.8-1.5 4.6-2.6 5.6-1.7 1.5-4.7 1.7-5.7 1.8.4-2.8.2-5.6.8-8.3 1.1-4.2 3.2-8.7 9.1-8.8 4.9 0 7.2 3.6 7.2 3.6s-.2 3.4-2.3 4.5z"/><path class="st0" d="M138.2 219.1H81.1v-2h56l13.3-19.5 1.7 1.1z"/><path class="st11" d="M84.3 179.3h-9.7c-2.7 0-4.9-2-5.3-4.7l-1.1-9.2c-.2-1.5.9-2.9 2.4-3.1 1.5-.2 2.9.9 3.1 2.4l1.1 9.1h9.5v5.5z"/><circle class="st3" cx="100.9" cy="192.1" r="2"/><circle class="st3" cx="107.8" cy="192.2" r="2"/><circle class="st3" cx="122.5" cy="193.5" r="2"/><circle class="st3" cx="129.1" cy="193.7" r="2"/></g><circle class="st7" cx="102.2" cy="199.2" r="1.9"/></svg>