<svg width="1024" height="158" viewBox="0 0 1024 158" xmlns="http://www.w3.org/2000/svg"><title>Silhouette of houses</title><path d="M978.3 43.2H773.8c-.3-16.6-13.9-32-30.6-32-8.5 0-16.3 3.5-21.8 9.1C716.4 8.4 704.7.1 691.1 0 672.9-.1 658 15.5 658 33.7v9h-9.5c-18.3 0-33.2 14.8-33.2 33.2h-24.1l-12-15.6V34.9h4.1v-5.5h-22.2v5.5h3.7v6.8l-22.4-29.1-48.2 63.3H480v11.8h8.2l-.2 37.5h-5.7v-7.1l-4.8-4.8-2.3 2.4v-12c0-7.3-5.6-13.5-12.8-13.9-7.8-.4-14.2 5.8-14.2 13.5v11.2l-1.2-1.2-4.8 4.8v7.1h-5.7v-4c.9-2.1 1.4-4.4 1.2-6.9-.6-7.6-7.2-13.5-14.7-13.3-7.8.2-14 6.6-14 14.4 0 3.1 1 6 2.7 8.4v1.5H406v-7.1l-4.8-4.8-4.8 4.8v7.1h-5.7v-7.1l-4.8-4.8-4.8 4.8v7.1h-5.7v-7.1l-4.8-4.8-4.8 4.8v7.1h-5.7v-7.1l-4.8-4.8-4.8 4.8V140c-5.3-1.7-11-2.8-17.6-2.8-2.9 0-5.7.2-8.5.6v-15.4c10.3-1.3 18.3-10 18.3-20.6V55c0-11.5-9.3-20.8-20.8-20.8s-20.8 9.3-20.8 20.8v46.8c0 10.6 8 19.4 18.3 20.6v16.3c-16.9 3.8-31 13.4-51 15.1h-6.1v-36.7h.5c1.4 0 2.5-1.1 2.5-2.5v-2.7c0-1.4-1.1-2.5-2.5-2.5h-28.1V96.3l-39.2-58.4-39.2 58.4-39.1-58.5-39 58.1-39-58.1L0 96.2v61.6h545.2c5-5.5 12.2-9 20.4-9 4 0 7.7.8 11.1 2.3V134c-6.7-.7-11.9-6.3-11.9-13.1V103c0-7.3 5.9-13.2 13.2-13.2h.6c7.3 0 13.2 5.9 13.2 13.2v17.8c0 6.6-4.8 12.1-11.2 13v18.6c7.9-8.2 19.1-13.2 31.5-13.2 14.9 0 28.1 7.3 35.9 18.5h375.8V88.6c0-24.9-20.5-45.4-45.5-45.4zM46.6 92.4H31.9V71h14.7v21.4zm77.7 0h-14.7V71h14.7v21.4zM482.4 133h5.6v9.6h-5.6V133zm-15.3 3.7c1.9-.8 3.6-2.1 5-3.7h.8v9.6h-5.7v-5.9h-.1zm5.7 13.8v3.3h-5.7v-3.3h5.7zm-20.9-17c1.5 1.7 3.5 3 5.7 3.7v5.5h-5.7v-9.2zm5.7 17v3.3h-5.7v-3.3h5.7zm-21-17.5h5.7v9.6h-5.7V133zm5.7 17.5v3.3h-5.7v-3.3h5.7zM421.4 133h5.7v9.6h-5.7V133zm5.7 17.5v3.3h-5.7v-3.3h5.7zm-21-17.5h5.7v9.6h-5.7V133zm5.8 17.5v3.3h-5.7v-3.3h5.7zm-21-17.5h5.7v9.6h-5.7V133zm5.7 17.5v3.3h-5.7v-3.2h5.7v-.1zm-21-17.5h5.7v9.6h-5.7V133zm-15.2 0h5.7v9.6h-5.7V133zm21 17.5v1.4c-1.5-.4-3-.9-4.5-1.4h4.5zm-195.1-19.8h-17.7v-20.1h17.7v20.1zm2.9-59.7h14.7v21.3h-14.7V71zm2.8 59.7v-20.1h17.7v20.1H192zm27.1-13.6h39.8v36.7h-6c.2-.3.2-.5.2-.9v-3.8h1.5V143c0-1.9-1.6-3.5-3.5-3.5h-.3l-1.8-7.6c-.5-2-2.3-3.4-4.3-3.4h-10.5c-1.8 0-3.5 1.1-4.2 2.8l-2.9 8.2h-.2c-1.9 0-3.5 1.6-3.5 3.5v6.2h1.4v3.8c0 .3.1.6.2.9h-5.9v-36.8zm8 28.9c-.9 0-1.7-.7-1.7-1.7 0-.9.7-1.7 1.7-1.7.9 0 1.7.7 1.7 1.7-.1.9-.8 1.7-1.7 1.7zm2.4 7.7c.1-.2.2-.5.2-.8v-3.8h18.4v3.8c0 .3.1.6.2.9h-18.8v-.1zm.7-14.2l3-8.8h12.4l2 8.8h-17.4zm12.8 4.8v2.3h-8.4v-2.3h8.4zm6.8 0c0-.9.7-1.7 1.7-1.7.9 0 1.7.7 1.7 1.7 0 .9-.7 1.7-1.7 1.7-.9 0-1.7-.8-1.7-1.7zm232.6 9.5v-3.3h5.5v3.3h-5.5zm57.8-83.2h-12.5v-19h12.5v19zm17.8 0h-12.5v-19H558v19z" fill="#FFF" fill-rule="nonzero" opacity=".527"/></svg>
